<?xml version="1.0" encoding="UTF-8" standalone="no"?><!-- Generator: Gravit.io --><svg xmlns="http://www.w3.org/2000/svg" xmlns:xlink="http://www.w3.org/1999/xlink" style="isolation:isolate" viewBox="0 0 627 500" width="627pt" height="500pt"><defs><clipPath id="_clipPath_DXe9xILlhq005LzyY7C3pq6zLAvWbPrC"><rect width="627" height="500"/></clipPath></defs><g clip-path="url(#_clipPath_DXe9xILlhq005LzyY7C3pq6zLAvWbPrC)"><rect width="627" height="500" style="fill:rgb(19,19,19)" fill-opacity="0"/><defs><filter id="Qtqem0ZMkzjO09yhrLqcfvcbdG2K4KMR" x="-200%" y="-200%" width="400%" height="400%" filterUnits="objectBoundingBox" color-interpolation-filters="sRGB"><feGaussianBlur xmlns="http://www.w3.org/2000/svg" in="SourceGraphic" stdDeviation="2.146804531419514"/><feOffset xmlns="http://www.w3.org/2000/svg" dx="0" dy="0" result="pf_100_offsetBlur"/><feFlood xmlns="http://www.w3.org/2000/svg" flood-color="#000000" flood-opacity="0"/><feComposite xmlns="http://www.w3.org/2000/svg" in2="pf_100_offsetBlur" operator="in" result="pf_100_dropShadow"/><feBlend xmlns="http://www.w3.org/2000/svg" in="SourceGraphic" in2="pf_100_dropShadow" mode="normal"/></filter></defs><g filter="url(#Qtqem0ZMkzjO09yhrLqcfvcbdG2K4KMR)"><path d=" M 127.798 488 L 538 173 L 450 152 L 9 488 L 127.798 488 M 605 488 L 138 488 C 204.405 438.137 212.998 431.904 261 396 M 261 396 C 279.019 400.819 393.685 431.486 605 488" fill-rule="evenodd" fill="rgb(47,133,90)"/></g><defs><filter id="xRQOQ95w9o9ycp1Ogk1wP2Imj3W68DBD" x="-200%" y="-200%" width="400%" height="400%" filterUnits="objectBoundingBox" color-interpolation-filters="sRGB"><feGaussianBlur xmlns="http://www.w3.org/2000/svg" in="SourceGraphic" stdDeviation="2.146804531419514"/><feOffset xmlns="http://www.w3.org/2000/svg" dx="0" dy="0" result="pf_100_offsetBlur"/><feFlood xmlns="http://www.w3.org/2000/svg" flood-color="#000000" flood-opacity="0"/><feComposite xmlns="http://www.w3.org/2000/svg" in2="pf_100_offsetBlur" operator="in" result="pf_100_dropShadow"/><feBlend xmlns="http://www.w3.org/2000/svg" in="SourceGraphic" in2="pf_100_dropShadow" mode="normal"/></filter></defs><g filter="url(#xRQOQ95w9o9ycp1Ogk1wP2Imj3W68DBD)"><path d=" M 486.202 22 L 55 341 L 151 365 L 603 22 L 486.202 22 M 9 22 L 476 22 C 409.595 71.863 401.002 77.486 353 113 M 11 22" fill-rule="evenodd" fill="rgb(72,187,120)"/></g></g></svg>