<?xml version="1.0" encoding="UTF-8" standalone="no"?><!-- Generator: Gravit.io --><svg xmlns="http://www.w3.org/2000/svg" xmlns:xlink="http://www.w3.org/1999/xlink" style="isolation:isolate" viewBox="0 0 550 500" width="550pt" height="500pt"><defs><clipPath id="_clipPath_TqgHTwqT4GOllQU34yXUmI4qMtKenLW0"><rect width="550" height="500"/></clipPath></defs><g clip-path="url(#_clipPath_TqgHTwqT4GOllQU34yXUmI4qMtKenLW0)"><rect width="550" height="500" style="fill:rgb(19,19,19)" fill-opacity="0"/><defs><filter id="7ydzmIjDT8MtwD3KSaTxMQq7vAZ6MHcs" x="-200%" y="-200%" width="400%" height="400%" filterUnits="objectBoundingBox" color-interpolation-filters="sRGB"><feGaussianBlur xmlns="http://www.w3.org/2000/svg" in="SourceGraphic" stdDeviation="2.146804531419514"/><feOffset xmlns="http://www.w3.org/2000/svg" dx="0" dy="0" result="pf_100_offsetBlur"/><feFlood xmlns="http://www.w3.org/2000/svg" flood-color="#000000" flood-opacity="0"/><feComposite xmlns="http://www.w3.org/2000/svg" in2="pf_100_offsetBlur" operator="in" result="pf_100_dropShadow"/><feBlend xmlns="http://www.w3.org/2000/svg" in="SourceGraphic" in2="pf_100_dropShadow" mode="normal"/></filter></defs><g filter="url(#7ydzmIjDT8MtwD3KSaTxMQq7vAZ6MHcs)"><path d=" M 196.476 370.865 L 453.484 196.043 L 392.841 176.697 L 125.147 348.11 L 196.476 370.865 M 483 462.269 L 202.602 372.819 C 258.25 336.081 265.382 331.545 305.564 305.127 M 305.564 305.127 C 314.858 313.358 374.004 365.739 483 462.269" fill-rule="evenodd" fill="rgb(47,133,90)"/></g><defs><filter id="XQ2YJHEVcHKdiyKPSP1R8WGYTbbXY0W7" x="-200%" y="-200%" width="400%" height="400%" filterUnits="objectBoundingBox" color-interpolation-filters="sRGB"><feGaussianBlur xmlns="http://www.w3.org/2000/svg" in="SourceGraphic" stdDeviation="2.146804531419514"/><feOffset xmlns="http://www.w3.org/2000/svg" dx="0" dy="0" result="pf_100_offsetBlur"/><feFlood xmlns="http://www.w3.org/2000/svg" flood-color="#000000" flood-opacity="0"/><feComposite xmlns="http://www.w3.org/2000/svg" in2="pf_100_offsetBlur" operator="in" result="pf_100_dropShadow"/><feBlend xmlns="http://www.w3.org/2000/svg" in="SourceGraphic" in2="pf_100_dropShadow" mode="normal"/></filter></defs><g filter="url(#XQ2YJHEVcHKdiyKPSP1R8WGYTbbXY0W7)"><path d=" M 363.664 111.404 L 106.721 281.875 L 176.37 304.094 L 433.792 133.775 L 363.664 111.404 M 77.14 20 L 357.539 109.45 C 301.89 146.188 294.951 150.119 254.893 176.15 M 78.341 20.383" fill-rule="evenodd" fill="rgb(72,187,120)"/></g></g></svg>